TRAIL_071_EP_01_grf.mot
version=1
nRows=25
nColumns=19
inDegrees=yes
endheader
time	ground_force_vx	ground_force_vy	ground_force_vz	ground_force_px	ground_force_py	ground_force_pz	1_ground_force_vx	1_ground_force_vy	1_ground_force_vz	1_ground_force_px	1_ground_force_py	1_ground_force_pz	ground_torque_x	ground_torque_y	ground_torque_z	1_ground_torque_x	1_ground_torque_y	1_ground_torque_z
        0.3375000358	        0.0000000000	        0.0000000000	        0.0000000000	        0.0000000000	        0.0000000000	        0.0000000000	      140.7583645432	      362.1831367822	      -29.4256845801	        0.8807587076	        0.0000000000	       -0.0839198437	        0.0000000000	        0.0000000000	        0.0000000000	        0.0000000000	        0.9090503559	        0.0000000000
        0.3383333683	        0.0000000000	        0.0000000000	        0.0000000000	        0.0000000000	        0.0000000000	        0.0000000000	      135.2466243275	      346.0327968268	      -28.9998194432	        0.8806372018	        0.0000000000	       -0.0855200848	        0.0000000000	        0.0000000000	        0.0000000000	        0.0000000000	        0.9192323803	        0.0000000000
        0.3391667008	        0.0000000000	        0.0000000000	        0.0000000000	        0.0000000000	        0.0000000000	        0.0000000000	      129.7627454205	      330.2872602978	      -28.5175905692	        0.8805005662	        0.0000000000	       -0.0876326658	        0.0000000000	        0.0000000000	        0.0000000000	        0.0000000000	        0.9308560851	        0.0000000000
        0.3400000334	        0.0000000000	        0.0000000000	        0.0000000000	        0.0000000000	        0.0000000000	        0.0000000000	      124.3277872352	      314.9740588633	      -27.9859309165	        0.8806482514	        0.0000000000	       -0.0891653372	        0.0000000000	        0.0000000000	        0.0000000000	        0.0000000000	        0.9447477651	        0.0000000000
        0.3408333659	        0.0000000000	        0.0000000000	        0.0000000000	        0.0000000000	        0.0000000000	        0.0000000000	      118.9624370538	      300.1161275210	      -27.4126284999	        0.8802406112	        0.0000000000	       -0.0915987797	        0.0000000000	        0.0000000000	        0.0000000000	        0.0000000000	        0.9618866265	        0.0000000000
        0.3416666985	        0.0000000000	        0.0000000000	        0.0000000000	        0.0000000000	        0.0000000000	        0.0000000000	      113.6867028764	      285.7311400812	      -26.8061253920	        0.8795630710	        0.0000000000	       -0.0936102029	        0.0000000000	        0.0000000000	        0.0000000000	        0.0000000000	        0.9834158726	        0.0000000000
        0.3425000310	        0.0000000000	        0.0000000000	        0.0000000000	        0.0000000000	        0.0000000000	        0.0000000000	      108.5195902886	      271.8310149568	      -26.1752762931	        0.8791058286	        0.0000000000	       -0.0952957416	        0.0000000000	        0.0000000000	        0.0000000000	        0.0000000000	        1.0106431658	        0.0000000000
        0.3433333635	        0.0000000000	        0.0000000000	        0.0000000000	        0.0000000000	        0.0000000000	        0.0000000000	      103.4787694493	      258.4216237082	      -25.5290743598	        0.8791494653	        0.0000000000	       -0.0971678561	        0.0000000000	        0.0000000000	        0.0000000000	        0.0000000000	        1.0450276624	        0.0000000000
        0.3441666961	        0.0000000000	        0.0000000000	        0.0000000000	        0.0000000000	        0.0000000000	        0.0000000000	       98.5802394477	      245.5027226983	      -24.8763542116	        0.8794963391	        0.0000000000	       -0.0996761063	        0.0000000000	        0.0000000000	        0.0000000000	        0.0000000000	        1.0881516827	        0.0000000000
        0.3450000286	        0.0000000000	        0.0000000000	        0.0000000000	        0.0000000000	        0.0000000000	        0.0000000000	       93.8379988845	      233.0681142044	      -24.2254837830	        0.8791523988	        0.0000000000	       -0.1025862508	        0.0000000000	        0.0000000000	        0.0000000000	        0.0000000000	        1.1416761202	        0.0000000000
        0.3458333611	        0.0000000000	        0.0000000000	        0.0000000000	        0.0000000000	        0.0000000000	        0.0000000000	       89.2637331005	      221.1060295727	      -23.5840577897	        0.8785155392	        0.0000000000	       -0.1044195721	        0.0000000000	        0.0000000000	        0.0000000000	        0.0000000000	        1.2072797196	        0.0000000000
        0.3466666937	        0.0000000000	        0.0000000000	        0.0000000000	        0.0000000000	        0.0000000000	        0.0000000000	       84.8665294657	      209.5997151459	      -22.9586062357	        0.8786779495	        0.0000000000	       -0.1071902030	        0.0000000000	        0.0000000000	        0.0000000000	        0.0000000000	        1.2865833390	        0.0000000000
        0.3475000262	        0.0000000000	        0.0000000000	        0.0000000000	        0.0000000000	        0.0000000000	        0.0000000000	       80.6526323221	      198.5281923439	      -22.3543317045	        0.8784166304	        0.0000000000	       -0.1103802810	        0.0000000000	        0.0000000000	        0.0000000000	        0.0000000000	        1.3810613049	        0.0000000000
        0.3483333588	        0.0000000000	        0.0000000000	        0.0000000000	        0.0000000000	        0.0000000000	        0.0000000000	       76.6252488038	      187.8671563378	      -21.7748888247	        0.8774863597	        0.0000000000	       -0.1132666069	        0.0000000000	        0.0000000000	        0.0000000000	        0.0000000000	        1.4919430274	        0.0000000000
        0.3491666913	        0.0000000000	        0.0000000000	        0.0000000000	        0.0000000000	        0.0000000000	        0.0000000000	       72.7844164429	      177.5899731675	      -21.2222178840	        0.8763785163	        0.0000000000	       -0.1157260156	        0.0000000000	        0.0000000000	        0.0000000000	        0.0000000000	        1.6201090872	        0.0000000000
        0.3500000238	        0.0000000000	        0.0000000000	        0.0000000000	        0.0000000000	        0.0000000000	        0.0000000000	       69.1269436092	      167.6687329939	      -20.6964421621	        0.8759580399	        0.0000000000	       -0.1193354534	        0.0000000000	        0.0000000000	        0.0000000000	        0.0000000000	        1.7659869132	        0.0000000000
        0.3508333564	        0.0000000000	        0.0000000000	        0.0000000000	        0.0000000000	        0.0000000000	        0.0000000000	       65.6464342505	      158.0753174460	      -20.1958355430	        0.8727741898	        0.0000000000	       -0.1218552723	        0.0000000000	        0.0000000000	        0.0000000000	        0.0000000000	        1.9294518559	        0.0000000000
        0.3516666889	        0.0000000000	        0.0000000000	        0.0000000000	        0.0000000000	        0.0000000000	        0.0000000000	       62.3334084923	      148.7824413828	      -19.7168636687	        0.8708799955	        0.0000000000	       -0.1254114702	        0.0000000000	        0.0000000000	        0.0000000000	        0.0000000000	        2.1097398462	        0.0000000000
        0.3525000215	        0.0000000000	        0.0000000000	        0.0000000000	        0.0000000000	        0.0000000000	        0.0000000000	       59.1755296797	      139.7646331831	      -19.2542986328	        0.8687803224	        0.0000000000	       -0.1302427402	        0.0000000000	        0.0000000000	        0.0000000000	        0.0000000000	        2.3053778189	        0.0000000000
        0.3533333540	        0.0000000000	        0.0000000000	        0.0000000000	        0.0000000000	        0.0000000000	        0.0000000000	       56.1579457347	      130.9991221675	      -18.8014045431	        0.8656821385	        0.0000000000	       -0.1355362273	        0.0000000000	        0.0000000000	        0.0000000000	        0.0000000000	        2.5141376373	        0.0000000000
        0.3541666865	        0.0000000000	        0.0000000000	        0.0000000000	        0.0000000000	        0.0000000000	        0.0000000000	       53.2637479073	      122.4666064729	      -18.3501896925	        0.8619694503	        0.0000000000	       -0.1407217614	        0.0000000000	        0.0000000000	        0.0000000000	        0.0000000000	        2.7330184779	        0.0000000000
        0.3550000191	        0.0000000000	        0.0000000000	        0.0000000000	        0.0000000000	        0.0000000000	        0.0000000000	       50.4745433349	      114.1518795139	      -17.8917203028	        0.8596754398	        0.0000000000	       -0.1476912022	        0.0000000000	        0.0000000000	        0.0000000000	        0.0000000000	        2.9582616671	        0.0000000000
        0.3558333516	        0.0000000000	        0.0000000000	        0.0000000000	        0.0000000000	        0.0000000000	        0.0000000000	       47.7711300605	      106.0442980113	      -17.4164899095	        0.8570034491	        0.0000000000	       -0.1511190612	        0.0000000000	        0.0000000000	        0.0000000000	        0.0000000000	        3.1854008543	        0.0000000000
        0.3566666842	        0.0000000000	        0.0000000000	        0.0000000000	        0.0000000000	        0.0000000000	        0.0000000000	       45.1342552408	       98.1380791829	      -16.9148367529	        0.8535499256	        0.0000000000	       -0.1587246152	        0.0000000000	        0.0000000000	        0.0000000000	        0.0000000000	        3.4093490988	        0.0000000000
        0.3575000167	        0.0000000000	        0.0000000000	        0.0000000000	        0.0000000000	        0.0000000000	        0.0000000000	       42.5454299186	       90.4324187286	      -16.3773991511	        0.8497650271	        0.0000000000	       -0.1665162542	        0.0000000000	        0.0000000000	        0.0000000000	        0.0000000000	        3.6245228884	        0.0000000000
